<?xml version="1.0" standalone="no"?>
<!DOCTYPE svg PUBLIC "-//W3C//DTD SVG 20010904//EN"
 "http://www.w3.org/TR/2001/REC-SVG-20010904/DTD/svg10.dtd">
<svg version="1.0" xmlns="http://www.w3.org/2000/svg"
 width="1552.000000pt" height="1552.000000pt" viewBox="0 0 1552.000000 1552.000000"
 preserveAspectRatio="xMidYMid meet">
<metadata>
Created by potrace 1.14, written by Peter Selinger 2001-2017
</metadata>
<g transform="translate(0.000000,1552.000000) scale(0.100000,-0.100000)"
fill="#000000" stroke="none">
<path d="M7895 15504 c-11 -3 -99 -8 -195 -14 -239 -12 -321 -19 -415 -31 -44
-6 -96 -12 -115 -15 -167 -17 -359 -47 -355 -54 2 -4 -6 -5 -18 -3 -12 2 -68
-5 -124 -16 -55 -12 -113 -21 -128 -21 -14 0 -34 -4 -43 -9 -15 -8 -77 -20
-110 -21 -7 0 -10 -4 -7 -10 3 -5 0 -7 -8 -4 -8 3 -41 -2 -73 -11 -55 -15 -81
-21 -112 -24 -7 0 -11 -5 -8 -10 3 -4 -5 -6 -17 -4 -12 2 -36 -1 -52 -8 -17
-7 -37 -13 -45 -14 -24 -3 -214 -56 -225 -63 -5 -4 -14 -7 -20 -7 -37 -1 -154
-39 -148 -48 3 -6 1 -7 -5 -3 -10 6 -114 -18 -137 -33 -5 -3 -12 -6 -15 -6
-24 -1 -88 -30 -83 -38 3 -6 1 -7 -6 -3 -11 7 -96 -16 -136 -37 -11 -6 -26
-12 -34 -13 -41 -7 -139 -49 -134 -57 3 -6 2 -7 -4 -4 -13 8 -83 -14 -83 -25
0 -5 -4 -7 -9 -4 -13 8 -42 -4 -35 -15 3 -5 -1 -6 -8 -4 -17 7 -181 -59 -171
-69 4 -4 -1 -4 -11 0 -13 5 -17 4 -12 -4 4 -7 2 -10 -7 -6 -15 5 -178 -62
-188 -78 -3 -5 -10 -9 -15 -8 -19 3 -122 -45 -117 -54 3 -5 1 -6 -4 -3 -15 9
-136 -47 -126 -58 4 -4 2 -5 -4 -1 -16 9 -324 -144 -316 -157 3 -6 1 -7 -5 -4
-15 10 -43 -3 -35 -16 3 -6 1 -7 -5 -3 -13 8 -72 -20 -72 -34 0 -6 -3 -9 -7
-8 -17 4 -53 -14 -47 -24 4 -6 2 -8 -4 -5 -15 10 -43 -3 -35 -16 3 -6 1 -7 -6
-3 -10 7 -78 -27 -91 -45 -3 -3 -15 -9 -28 -13 -12 -4 -19 -12 -16 -18 4 -7 2
-8 -4 -4 -15 9 -55 -18 -44 -29 4 -5 2 -5 -5 -1 -15 8 -76 -28 -65 -39 4 -5 1
-5 -6 -1 -11 7 -80 -30 -123 -66 -9 -7 -21 -14 -28 -16 -25 -5 -111 -69 -103
-77 4 -5 1 -5 -5 -1 -16 9 -56 -17 -45 -29 4 -5 2 -5 -5 -1 -7 4 -21 -2 -33
-14 -11 -11 -20 -18 -20 -15 0 3 -25 -11 -55 -31 -30 -20 -52 -41 -48 -47 4
-6 1 -7 -7 -2 -8 5 -18 2 -26 -9 -7 -10 -14 -16 -16 -14 -8 7 -98 -64 -92 -74
4 -7 2 -8 -5 -4 -15 9 -73 -32 -65 -46 4 -7 2 -8 -5 -4 -14 9 -74 -32 -66 -45
4 -5 0 -6 -7 -4 -8 3 -30 -10 -51 -28 -20 -19 -38 -32 -41 -30 -2 2 -13 -8
-25 -23 -11 -15 -21 -23 -21 -19 0 4 -7 2 -15 -5 -8 -7 -12 -16 -9 -21 3 -5
-1 -7 -8 -4 -7 3 -34 -14 -61 -38 -26 -24 -47 -42 -47 -39 0 2 -17 -11 -38
-29 -20 -18 -36 -37 -34 -42 1 -5 -2 -6 -7 -2 -6 3 -34 -17 -63 -45 -28 -27
-54 -50 -56 -50 -12 0 -96 -84 -94 -94 2 -6 0 -8 -4 -4 -10 11 -35 -12 -27
-26 3 -6 2 -7 -2 -3 -10 9 -8 11 -213 -191 -85 -83 -151 -156 -147 -162 4 -6
2 -9 -2 -8 -13 4 -73 -54 -67 -64 3 -5 1 -7 -4 -6 -9 3 -86 -78 -157 -163 -17
-20 -47 -56 -67 -80 -20 -24 -36 -47 -35 -51 1 -4 -8 -14 -20 -23 -12 -8 -32
-32 -44 -52 -13 -21 -43 -64 -67 -95 -26 -34 -41 -62 -36 -69 4 -7 3 -10 -3
-6 -13 8 -86 -100 -78 -114 4 -5 2 -8 -3 -7 -6 2 -10 1 -9 -2 0 -3 -11 -18
-26 -34 -15 -16 -24 -32 -21 -37 3 -5 0 -9 -5 -9 -6 0 -11 -6 -11 -14 0 -8 -4
-16 -8 -18 -16 -7 -53 -78 -46 -89 4 -7 3 -9 -3 -6 -13 8 -26 -20 -16 -35 3
-6 1 -8 -5 -5 -10 7 -85 -116 -85 -140 0 -7 -7 -15 -15 -18 -8 -3 -11 -12 -8
-21 3 -8 2 -13 -3 -10 -11 7 -23 -22 -15 -35 3 -5 0 -9 -6 -9 -10 0 -33 -43
-35 -66 0 -6 -8 -19 -18 -28 -15 -16 -22 -36 -18 -58 0 -5 -3 -8 -8 -8 -7 0
-54 -101 -56 -120 0 -3 -7 -16 -14 -28 -7 -13 -10 -26 -7 -29 3 -3 -2 -12 -10
-20 -8 -9 -13 -22 -10 -30 3 -8 2 -12 -3 -9 -10 7 -33 -42 -26 -55 4 -5 2 -9
-4 -9 -5 0 -13 -10 -17 -22 -4 -13 -6 -23 -4 -23 1 0 -7 -18 -18 -39 -12 -22
-19 -43 -16 -48 3 -4 0 -8 -6 -8 -7 0 -10 -7 -6 -15 3 -8 0 -15 -5 -15 -6 0
-9 -9 -6 -20 3 -13 1 -18 -6 -13 -6 4 -8 -2 -5 -15 4 -12 2 -20 -3 -16 -7 4
-12 -14 -8 -28 0 -2 -6 -16 -14 -32 -9 -16 -14 -37 -12 -47 2 -11 0 -17 -6
-14 -5 4 -9 -1 -9 -9 0 -26 -1 -30 -12 -43 -6 -7 -8 -20 -4 -28 4 -11 2 -14
-6 -9 -7 5 -9 0 -6 -14 4 -12 3 -20 -2 -17 -7 4 -23 -50 -17 -59 1 -1 -3 -9
-9 -17 -6 -8 -10 -24 -9 -36 1 -12 -2 -20 -6 -17 -8 4 -24 -45 -31 -91 -2 -11
-7 -25 -11 -31 -4 -7 -8 -28 -9 -48 -2 -20 -7 -36 -12 -36 -4 0 -6 -9 -3 -20
3 -11 2 -18 -3 -15 -10 6 -23 -42 -15 -55 4 -6 1 -10 -6 -10 -6 0 -9 -8 -6
-20 3 -11 1 -20 -5 -20 -6 0 -8 -11 -6 -25 3 -15 1 -22 -5 -18 -6 4 -8 -4 -5
-20 3 -16 1 -24 -5 -20 -6 4 -8 -2 -5 -15 4 -12 2 -22 -4 -22 -5 0 -8 -8 -7
-17 1 -10 -1 -26 -6 -35 -4 -10 -4 -25 -1 -34 4 -9 2 -13 -5 -8 -8 5 -10 -3
-7 -24 3 -18 0 -29 -5 -25 -6 3 -8 -7 -5 -25 2 -17 0 -28 -5 -25 -5 3 -8 -3
-7 -13 1 -11 1 -21 0 -24 -7 -20 -23 -122 -24 -157 -1 -18 -5 -33 -9 -33 -5 0
-7 -8 -6 -17 1 -10 -1 -29 -4 -43 -4 -14 -9 -41 -11 -60 -2 -19 -6 -42 -9 -50
-3 -8 -8 -37 -11 -65 -3 -27 -8 -61 -11 -75 -3 -14 -8 -49 -10 -78 -3 -30 -7
-57 -10 -62 -5 -9 -18 -137 -19 -202 -1 -21 -4 -38 -7 -38 -4 0 -7 -24 -8 -52
0 -29 -4 -80 -8 -113 -4 -33 -8 -105 -10 -160 -2 -55 -8 -140 -13 -190 -12
-124 -8 -964 5 -973 6 -4 11 -69 11 -151 1 -79 6 -146 10 -150 5 -3 10 -48 10
-98 1 -51 5 -101 9 -110 3 -10 8 -52 10 -93 3 -41 9 -76 14 -78 5 -2 7 -11 4
-20 -2 -9 1 -44 7 -77 5 -33 12 -80 15 -105 3 -25 8 -56 11 -70 9 -39 25 -131
31 -175 3 -22 11 -67 19 -100 8 -33 16 -71 18 -85 6 -61 30 -159 38 -154 4 3
5 -1 2 -9 -3 -8 4 -52 16 -98 12 -46 24 -96 27 -111 3 -16 10 -28 15 -28 5 0
7 -4 4 -9 -9 -15 16 -111 27 -104 6 3 7 1 3 -6 -9 -14 44 -192 56 -185 4 3 5
-2 2 -11 -4 -8 -2 -21 4 -28 6 -6 10 -15 10 -20 0 -20 26 -106 31 -102 3 1 7
-11 8 -28 1 -17 8 -34 15 -39 7 -4 10 -8 5 -8 -4 0 -1 -16 7 -35 9 -20 15 -38
15 -40 1 -24 26 -83 34 -78 6 3 7 1 3 -6 -10 -16 3 -53 16 -45 7 4 8 2 4 -5
-9 -14 32 -121 46 -121 5 0 7 -4 4 -9 -8 -13 4 -42 15 -35 5 3 6 -3 2 -12 -5
-13 -3 -15 7 -9 9 6 11 4 5 -4 -8 -14 23 -91 37 -91 5 0 7 -4 4 -9 -8 -13 50
-132 59 -123 5 4 5 2 1 -5 -7 -13 19 -73 38 -85 6 -4 8 -8 3 -8 -9 0 62 -142
75 -151 5 -3 10 -10 10 -15 1 -22 22 -53 31 -47 6 3 7 1 3 -5 -7 -13 23 -72
36 -72 4 0 7 -4 6 -8 -4 -13 64 -132 74 -132 5 0 7 -4 3 -10 -3 -5 3 -18 15
-30 11 -11 20 -23 20 -27 1 -14 154 -242 160 -238 4 2 7 -2 7 -9 0 -17 63
-106 75 -106 5 0 7 -4 3 -9 -3 -5 5 -17 17 -26 13 -8 22 -18 20 -21 -5 -7 70
-104 80 -104 4 0 8 -6 8 -13 0 -8 17 -32 38 -55 22 -23 37 -44 35 -46 -2 -2
10 -15 27 -29 16 -14 30 -29 30 -32 0 -16 132 -155 142 -149 4 3 5 -1 2 -9 -3
-8 14 -31 41 -56 25 -23 45 -44 45 -46 0 -11 63 -70 72 -67 5 1 7 -1 4 -6 -7
-12 38 -54 49 -45 4 5 5 3 2 -3 -8 -14 66 -87 78 -77 4 5 5 3 2 -4 -4 -7 16
-31 50 -60 32 -26 64 -56 71 -66 7 -9 19 -14 25 -11 7 4 9 4 5 -1 -10 -10 43
-56 55 -48 6 3 7 1 4 -4 -8 -13 27 -46 37 -36 4 5 6 1 4 -7 -2 -8 3 -14 10
-12 6 1 11 -2 10 -7 -2 -5 1 -9 5 -9 5 -1 18 -13 29 -27 11 -14 27 -24 34 -21
8 3 14 0 14 -8 0 -14 72 -76 89 -76 5 0 11 -4 13 -9 7 -19 90 -81 100 -74 6 3
8 1 5 -4 -6 -10 25 -38 46 -42 4 0 15 -8 25 -17 48 -43 113 -84 124 -78 6 4 8
3 5 -3 -4 -6 0 -16 8 -23 8 -7 15 -10 15 -7 0 3 12 -5 27 -19 14 -13 28 -22
30 -20 2 2 16 -7 30 -20 14 -13 28 -22 30 -20 2 2 15 -6 28 -18 13 -11 40 -30
62 -41 21 -11 40 -22 43 -25 15 -17 122 -70 131 -65 5 4 8 2 7 -4 -4 -14 131
-93 145 -84 5 3 7 2 4 -3 -7 -13 201 -117 215 -108 6 4 8 3 5 -3 -7 -10 14
-22 166 -90 54 -24 102 -41 108 -38 5 4 9 2 9 -3 0 -9 44 -31 71 -35 8 -2 20
-6 26 -10 12 -7 174 -66 198 -72 6 -1 23 -7 38 -13 16 -7 32 -12 38 -12 5 0
36 -9 69 -21 34 -11 68 -18 76 -15 8 3 13 2 10 -2 -6 -11 120 -46 139 -38 9 3
14 2 10 -3 -6 -11 50 -25 65 -16 5 3 10 2 10 -3 0 -12 117 -35 132 -26 7 5 8
3 3 -5 -5 -9 0 -12 16 -10 13 1 31 -1 39 -4 28 -11 192 -38 198 -33 3 3 10 2
17 -4 6 -5 35 -10 65 -12 30 -2 57 -6 60 -10 3 -3 25 -8 50 -11 25 -3 80 -11
123 -17 42 -6 81 -9 86 -5 5 3 11 1 13 -4 1 -6 26 -12 53 -15 28 -3 73 -9 100
-15 28 -5 78 -12 112 -16 34 -3 72 -8 85 -10 53 -11 200 -25 208 -20 4 3 10 1
12 -4 1 -5 49 -11 104 -13 56 -2 100 -6 98 -9 -11 -20 804 -20 845 0 9 4 31 5
50 2 34 -6 35 -8 58 -96 14 -49 29 -92 34 -93 5 -2 6 -8 3 -13 -3 -6 0 -16 6
-24 7 -8 10 -15 6 -15 -6 0 62 -141 73 -150 3 -3 12 -17 20 -33 8 -15 18 -27
23 -27 4 0 8 -6 8 -13 0 -18 35 -49 44 -40 4 4 5 1 1 -7 -3 -10 16 -35 53 -70
94 -89 120 -110 131 -110 6 0 11 -4 11 -9 0 -15 119 -83 131 -75 8 4 9 3 5 -4
-7 -12 87 -65 98 -55 3 4 6 2 6 -4 0 -6 15 -16 33 -23 17 -7 51 -21 75 -31 23
-11 52 -20 65 -22 12 -1 24 -4 27 -7 10 -11 112 -40 121 -34 5 3 9 1 9 -5 0
-5 17 -12 38 -15 20 -4 53 -9 72 -13 56 -10 374 -11 422 -2 24 5 52 11 63 14
40 8 120 39 123 47 2 4 7 6 12 3 10 -6 112 43 122 59 4 6 8 7 8 3 0 -5 13 0
29 9 17 10 28 21 25 26 -3 5 -1 7 4 6 16 -5 73 42 66 54 -4 6 -3 8 3 5 13 -8
56 37 46 48 -5 4 -3 5 3 2 14 -8 47 26 37 37 -5 4 -2 6 5 4 7 -2 20 11 30 27
9 17 19 32 22 35 22 20 50 72 44 81 -4 7 -3 9 3 6 11 -7 83 158 86 193 1 23
25 21 33 -2 3 -10 10 -18 15 -18 6 0 8 -4 4 -9 -3 -5 0 -15 7 -23 7 -7 14 -20
16 -28 12 -54 166 -255 186 -243 6 3 8 2 3 -2 -9 -10 31 -55 50 -55 7 0 13 -4
13 -9 0 -15 83 -72 97 -67 7 3 15 0 19 -6 4 -7 3 -8 -4 -4 -7 4 -12 5 -12 1 0
-11 172 -86 186 -81 8 3 14 1 14 -4 0 -9 17 -16 60 -24 14 -3 41 -10 60 -15
102 -31 510 -14 510 21 0 5 4 7 9 4 15 -9 152 45 144 57 -3 6 -1 7 6 3 15 -10
53 3 45 15 -3 5 -2 8 3 7 15 -4 53 13 53 24 0 6 3 9 6 5 10 -10 75 44 67 56
-4 6 -1 7 6 2 23 -14 211 191 196 214 -3 5 0 13 6 17 8 4 9 3 5 -4 -4 -7 -5
-12 -2 -12 8 0 57 94 59 112 1 9 5 14 9 12 4 -3 8 0 8 5 0 6 11 10 24 9 14 -1
23 -5 20 -9 -8 -14 184 -224 195 -213 2 2 11 -5 19 -17 9 -13 20 -18 30 -14 9
3 13 3 9 -1 -8 -8 21 -44 35 -44 5 0 18 -9 30 -20 12 -10 25 -17 30 -14 4 3 8
1 8 -3 0 -9 70 -44 81 -40 3 1 14 -6 24 -16 9 -10 24 -16 32 -13 8 3 12 2 9
-3 -3 -5 25 -18 62 -30 68 -22 84 -25 207 -43 78 -11 255 -1 255 14 0 5 5 6
11 3 12 -8 151 24 145 34 -2 3 7 7 21 8 14 0 28 5 32 10 3 4 13 9 21 11 42 9
164 100 238 177 45 47 82 90 82 96 0 6 7 17 16 26 8 9 12 23 9 31 -3 9 -3 13
1 9 4 -4 15 7 25 23 11 17 24 30 31 31 7 0 49 1 92 0 44 0 84 3 89 6 6 3 24 7
41 9 36 3 49 5 138 24 38 8 64 18 61 23 -3 6 -1 7 5 3 15 -9 93 14 86 25 -3 5
2 6 10 3 8 -3 28 1 43 9 15 8 43 21 60 27 18 7 30 17 26 23 -3 6 -1 7 6 3 6
-4 25 0 41 8 17 9 44 23 60 32 17 9 27 20 24 26 -4 6 -2 8 4 4 12 -7 82 31 82
45 0 5 6 9 13 9 19 0 49 35 40 45 -5 4 -2 5 5 1 16 -10 54 22 45 37 -3 5 -1 7
4 4 10 -6 35 19 86 84 28 36 67 116 60 123 -4 3 -2 6 4 6 10 0 26 39 27 65 1
6 5 13 9 16 4 3 10 19 12 35 2 16 4 29 5 29 1 0 3 7 5 15 20 75 25 103 20 108
-2 3 0 11 7 19 6 8 12 47 12 88 1 41 4 75 9 75 4 0 7 29 6 64 -1 35 1 68 4 72
3 5 7 145 8 311 2 165 7 299 12 296 4 -2 8 40 8 94 1 54 4 116 7 138 3 22 6
64 6 93 1 28 4 52 7 52 3 0 9 21 12 48 8 55 27 176 34 212 3 14 6 35 6 48 1
12 6 22 11 22 4 0 6 11 4 25 -3 13 0 26 5 28 6 2 11 19 11 39 1 20 4 34 7 33
4 -3 28 70 34 105 0 3 7 22 14 42 7 21 9 43 5 50 -4 7 -3 10 1 5 10 -9 67 133
60 151 -3 7 -1 11 4 8 11 -7 23 22 15 35 -3 5 -1 9 5 9 8 0 22 26 26 50 0 3 9
20 18 37 10 18 17 35 17 38 0 3 18 41 40 85 22 45 38 85 35 90 -3 4 -1 10 3
12 16 6 93 169 86 180 -4 6 -3 8 3 5 10 -6 86 145 86 171 0 6 4 12 7 12 8 0
27 42 32 70 2 8 9 21 16 29 7 7 11 20 8 27 -3 8 -2 14 3 14 13 0 83 178 75
192 -4 7 -3 10 1 5 10 -9 37 51 29 64 -3 5 -1 9 4 9 12 0 44 108 36 122 -4 6
-3 8 3 5 13 -8 27 39 17 55 -4 6 -3 8 3 5 13 -8 48 117 37 134 -4 7 -3 10 3 6
6 -4 13 3 16 16 3 12 17 72 31 132 37 157 66 285 65 293 -1 4 0 9 1 12 8 22
29 128 35 179 2 19 8 55 14 80 5 25 13 71 16 101 4 30 8 66 10 80 3 14 7 48
10 75 4 28 9 66 12 85 4 19 7 59 7 88 1 28 4 52 9 52 10 0 4 2177 -6 2210 -4
14 -8 45 -8 70 0 25 -5 68 -10 95 -5 28 -12 73 -15 100 -4 28 -10 51 -13 53
-4 1 -6 16 -3 32 2 16 -1 51 -7 77 -6 26 -14 66 -17 88 -3 22 -12 72 -20 110
-8 39 -17 86 -20 105 -3 19 -12 60 -20 90 -8 30 -16 64 -18 75 -9 62 -41 173
-48 169 -4 -3 -5 2 -2 10 8 20 -15 118 -26 111 -5 -3 -6 4 -3 15 3 11 2 28 -2
37 -5 10 -10 27 -12 38 -2 11 -10 40 -18 65 -8 25 -29 92 -46 150 -17 58 -35
106 -40 108 -4 2 -6 9 -4 15 7 18 -40 139 -50 130 -4 -5 -5 -2 -1 5 9 16 -13
84 -25 77 -5 -4 -6 1 -3 10 4 8 0 23 -7 32 -8 9 -13 18 -11 20 6 9 1 33 -10
45 -7 7 -14 22 -15 33 -1 11 -10 38 -19 60 -10 22 -18 45 -20 50 -1 6 -9 27
-17 48 -9 20 -17 41 -18 45 0 4 -11 25 -22 47 -12 22 -21 42 -22 45 -3 24 -49
119 -56 114 -5 -3 -6 2 -3 10 3 8 -3 32 -14 53 -27 53 -66 136 -68 146 -1 4
-2 12 -3 18 0 5 -6 7 -13 3 -6 -4 -8 -3 -4 4 7 12 -77 186 -86 177 -3 -4 -5 0
-5 7 3 23 -45 118 -56 111 -6 -3 -7 -1 -3 5 7 12 -44 123 -54 117 -3 -2 -7 6
-7 17 -1 11 -8 28 -16 37 -7 9 -19 31 -27 49 -7 17 -17 32 -22 32 -5 0 -7 4
-4 8 3 5 -4 19 -15 30 -11 12 -18 22 -15 22 8 0 -95 174 -107 182 -7 4 -8 8
-4 8 5 0 0 13 -9 29 -10 17 -22 27 -27 24 -6 -3 -7 -1 -3 5 6 11 -81 162 -94
162 -4 0 -7 6 -7 13 0 15 -53 97 -63 97 -4 0 -7 6 -7 13 0 21 -35 67 -46 60
-5 -3 -7 -1 -3 5 7 12 -31 82 -45 82 -5 0 -8 3 -7 8 3 14 -14 42 -23 36 -5 -3
-9 3 -9 13 0 10 -10 29 -23 43 -13 14 -26 33 -30 43 -4 10 -11 15 -17 12 -5
-3 -7 0 -5 8 3 7 -6 25 -19 40 -14 15 -26 31 -27 35 -2 15 -56 81 -62 77 -4
-3 -5 -2 -2 1 8 12 -16 45 -27 38 -7 -4 -8 -3 -4 4 8 14 -42 84 -55 76 -5 -3
-6 2 -3 10 3 9 -3 20 -15 28 -12 7 -21 17 -21 21 0 16 -37 56 -45 49 -5 -4 -5
-2 -2 4 4 6 -6 25 -21 43 -15 17 -42 51 -61 76 -18 25 -38 42 -44 38 -5 -3 -7
-1 -3 5 6 10 -30 56 -100 129 -18 18 -29 33 -25 33 3 0 -6 12 -21 28 -48 48
-166 176 -188 205 -12 15 -27 24 -33 20 -7 -3 -9 -2 -4 2 10 11 -43 66 -56 58
-6 -3 -7 -1 -4 4 8 12 -98 109 -114 105 -6 -1 -8 2 -5 6 5 9 -42 56 -160 160
-27 24 -61 55 -76 69 -16 14 -33 21 -39 17 -7 -4 -9 -3 -5 4 8 13 -64 73 -77
65 -6 -3 -7 -1 -4 4 7 11 -53 63 -71 63 -6 0 -12 4 -14 9 -4 12 -136 111 -147
111 -5 0 -11 7 -15 15 -3 8 -12 15 -20 15 -8 0 -16 4 -18 8 -4 10 -96 72 -108
72 -4 0 -10 3 -12 8 -5 11 -95 72 -106 72 -6 0 -12 4 -14 8 -7 18 -208 133
-219 126 -7 -4 -9 -3 -6 3 4 6 -54 43 -131 86 -190 104 -221 119 -234 111 -6
-4 -8 -3 -5 3 7 11 -60 46 -74 38 -5 -4 -9 -2 -9 3 0 10 -60 38 -72 34 -5 -1
-8 2 -8 7 0 9 -74 38 -76 30 0 -2 -8 4 -18 14 -15 15 -39 22 -49 15 -2 -2 -11
5 -21 15 -10 9 -24 17 -32 17 -8 0 -26 7 -39 16 -14 9 -32 14 -40 10 -9 -3
-14 -2 -11 3 4 5 -14 16 -39 24 -25 9 -45 13 -45 9 0 -4 -4 -2 -8 4 -4 7 -18
14 -32 15 -14 2 -27 7 -30 11 -3 4 -15 9 -25 11 -11 2 -30 9 -43 15 -12 7 -26
10 -31 7 -5 -3 -11 -1 -13 5 -1 5 -12 11 -23 13 -11 2 -28 7 -37 11 -9 4 -22
4 -29 0 -7 -4 -9 -3 -5 4 8 13 -48 27 -65 16 -7 -4 -9 -3 -6 3 7 11 -80 36
-95 27 -6 -4 -8 -2 -5 3 8 13 -79 37 -95 27 -6 -4 -8 -3 -5 3 8 12 -50 26 -66
16 -5 -3 -7 -2 -4 4 5 8 -79 32 -133 38 -8 1 -23 6 -32 10 -10 4 -25 4 -34 1
-8 -3 -12 -2 -9 4 3 6 -2 10 -12 11 -10 0 -29 3 -43 6 -14 4 -37 7 -52 7 -14
1 -24 5 -21 9 3 5 -3 7 -13 6 -11 -2 -28 0 -40 4 -28 10 -100 20 -146 20 -20
1 -34 5 -31 10 3 5 -5 8 -18 6 -13 -1 -32 1 -42 6 -9 4 -29 5 -42 3 -14 -3
-25 -2 -25 2 0 7 -42 14 -160 26 -25 2 -83 9 -130 16 -47 6 -126 12 -176 12
-51 1 -90 4 -88 8 5 8 -112 17 -305 23 -79 2 -146 7 -149 10 -6 6 -576 4 -607
-1z"/>
</g>
</svg>
